<?xml version="1.0" encoding="utf-8"?>
<!-- Generator: Adobe Illustrator 22.1.0, SVG Export Plug-In . SVG Version: 6.00 Build 0)  -->
<svg version="1.1" id="Layer_1" xmlns="http://www.w3.org/2000/svg" xmlns:xlink="http://www.w3.org/1999/xlink" x="0px" y="0px"
	 viewBox="0 0 1240 480" style="enable-background:new 0 0 1240 480;" xml:space="preserve">
<style type="text/css">
	.st0{fill:#1A202C;}
	.st1{font-family:'OvergrowDemo';}
	.st2{font-size:340.735px;}
	.st3{fill:url(#SVGID_1_);}
	.st4{fill:url(#SVGID_2_);}
</style>
<rect class="st0" width="1240" height="480"/>
<g>
	<text transform="matrix(1 0 0 1 359 341.3667)" class="st1 st2">JW</text>
	<g>
		
			<linearGradient id="SVGID_1_" gradientUnits="userSpaceOnUse" x1="375.3" y1="220.9002" x2="869.3646" y2="220.9002" gradientTransform="matrix(1 0 0 1 0 1)">
			<stop  offset="0" style="stop-color:#FF554B"/>
			<stop  offset="1" style="stop-color:#F9C529"/>
		</linearGradient>
		<path class="st3" d="M464.9,102.5v165.9c0,40.2-32.7,72.9-72.9,72.9h-16.7v-59.6H392c7.2,0,13-5.8,13-13v-166L464.9,102.5z"/>
		
			<linearGradient id="SVGID_2_" gradientUnits="userSpaceOnUse" x1="375.3552" y1="221.1003" x2="869.4199" y2="221.1003" gradientTransform="matrix(1 0 0 1 0 1)">
			<stop  offset="0" style="stop-color:#FF554B"/>
			<stop  offset="1" style="stop-color:#F9C529"/>
		</linearGradient>
		<path class="st4" d="M869.4,102.8L768.9,341.4h-64.7l-20.8-49.1l-20.8,49.1h-64.7L497.3,102.8H562l68.1,161.9l20.8-49.1
			l-47.4-112.8h64.7l68.1,161.9l68.1-161.9L869.4,102.8L869.4,102.8z"/>
	</g>
</g>
</svg>
