<?xml version="1.0" encoding="utf-8"?>
<!-- Generator: Adobe Illustrator 22.1.0, SVG Export Plug-In . SVG Version: 6.00 Build 0)  -->
<svg version="1.1" id="Layer_1" xmlns="http://www.w3.org/2000/svg" xmlns:xlink="http://www.w3.org/1999/xlink" x="0px" y="0px"
	 viewBox="0 0 1200 627" style="enable-background:new 0 0 1200 627;" xml:space="preserve">
<style type="text/css">
	.st0{fill:#1A202C;}
	.st1{font-family:'OvergrowDemo';}
	.st2{font-size:261.0998px;}
	.st3{fill:url(#SVGID_1_);}
	.st4{fill:url(#SVGID_2_);}
	.st5{fill:url(#SVGID_3_);}
	.st6{fill:url(#SVGID_4_);}
</style>
<g id="Layer_1_1_">
	<rect class="st0" width="1200" height="627"/>
	<g>
		<text transform="matrix(1 0 0 1 399.9997 391.1751)" class="st1 st2">JW</text>
		<g>
			
				<linearGradient id="SVGID_1_" gradientUnits="userSpaceOnUse" x1="412.4893" y1="426.4" x2="791.0832" y2="426.4" gradientTransform="matrix(1 0 0 -1 0 726)">
				<stop  offset="0" style="stop-color:#FF554B"/>
				<stop  offset="1" style="stop-color:#F9C529"/>
			</linearGradient>
			<path class="st3" d="M481.1,208.1v127.1c0,30.8-25.1,55.9-55.9,55.9h-12.8v-45.6h12.8c5.5,0,10-4.4,10-10V208.3L481.1,208.1z"/>
			
				<linearGradient id="SVGID_2_" gradientUnits="userSpaceOnUse" x1="412.5316" y1="426.2" x2="791.1256" y2="426.2" gradientTransform="matrix(1 0 0 -1 0 726)">
				<stop  offset="0" style="stop-color:#FF554B"/>
				<stop  offset="1" style="stop-color:#F9C529"/>
			</linearGradient>
			<path class="st4" d="M791.1,208.4l-77,182.8h-49.6l-15.9-37.6l-15.9,37.6h-49.6L506,208.4h49.6l52.2,124.1l15.9-37.6l-36.3-86.4
				H637l52.2,124.1l52.2-124.1h49.7L791.1,208.4L791.1,208.4z"/>
		</g>
	</g>
</g>
<g id="Layer_2_1_">
	<rect x="1261" y="73.5" class="st0" width="1240" height="480"/>
	<g>
		<text transform="matrix(1 0 0 1 1681.0002 391.1752)" class="st1" style="font-size:261.0996px;">JW</text>
		<g>
			
				<linearGradient id="SVGID_3_" gradientUnits="userSpaceOnUse" x1="1693.4908" y1="200.6" x2="2072.0845" y2="200.6" gradientTransform="matrix(1 0 0 1 0 99)">
				<stop  offset="0" style="stop-color:#FF554B"/>
				<stop  offset="1" style="stop-color:#F9C529"/>
			</linearGradient>
			<path class="st5" d="M1762.1,208.1v127.1c0,30.8-25.1,55.9-55.9,55.9h-12.8v-45.6h12.8c5.5,0,10-4.4,10-10V208.3L1762.1,208.1z"
				/>
			
				<linearGradient id="SVGID_4_" gradientUnits="userSpaceOnUse" x1="1693.5331" y1="200.8" x2="2072.1265" y2="200.8" gradientTransform="matrix(1 0 0 1 0 99)">
				<stop  offset="0" style="stop-color:#FF554B"/>
				<stop  offset="1" style="stop-color:#F9C529"/>
			</linearGradient>
			<path class="st6" d="M2072.1,208.4l-77,182.8h-49.6l-15.9-37.6l-15.9,37.6h-49.6L1787,208.4h49.6l52.2,124.1l15.9-37.6
				l-36.3-86.4h49.6l52.2,124.1l52.2-124.1L2072.1,208.4L2072.1,208.4z"/>
		</g>
	</g>
</g>
</svg>
