<?xml version="1.0" encoding="utf-8"?>
<!-- Generator: Adobe Illustrator 22.1.0, SVG Export Plug-In . SVG Version: 6.00 Build 0)  -->
<svg version="1.1" id="Layer_1" xmlns="http://www.w3.org/2000/svg" xmlns:xlink="http://www.w3.org/1999/xlink" x="0px" y="0px"
	 viewBox="0 0 1080 1080" style="enable-background:new 0 0 1080 1080;" xml:space="preserve">
<style type="text/css">
	.st0{fill:#1A202C;}
	.st1{font-family:'OvergrowDemo';}
	.st2{font-size:590.3546px;}
	.st3{fill:url(#SVGID_1_);}
	.st4{fill:url(#SVGID_2_);}
	.st5{fill:#FF554B;}
	.st6{fill:#F9C529;}
</style>
<rect x="0" class="st0" width="1080" height="1080"/>
<g>
	<text transform="matrix(1 0 0 1 87.7939 715.6265)" class="st1 st2">JW</text>
	<g>
		
			<linearGradient id="SVGID_1_" gradientUnits="userSpaceOnUse" x1="116.0988" y1="571.319" x2="972.1111" y2="571.319" gradientTransform="matrix(1 0 0 -1 0 1080)">
			<stop  offset="0" style="stop-color:#FF554B"/>
			<stop  offset="1" style="stop-color:#F9C529"/>
		</linearGradient>
		<path class="st3" d="M271.4,301.8v287.5c0,69.7-56.7,126.4-126.4,126.4h-28.9V612.4H145c12.4,0,22.4-10,22.4-22.4V302.3
			L271.4,301.8z"/>
		
			<linearGradient id="SVGID_2_" gradientUnits="userSpaceOnUse" x1="116.1305" y1="571.0259" x2="972.1428" y2="571.0259" gradientTransform="matrix(1 0 0 -1 0 1080)">
			<stop  offset="0" style="stop-color:#FF554B"/>
			<stop  offset="1" style="stop-color:#F9C529"/>
		</linearGradient>
		<path class="st4" d="M972.1,302.3L797.9,715.6H685.8l-36-85l-36,85H501.6L327.5,302.3h112.1l118.1,280.5l36-85l-82.1-195.4h112.1
			l118.1,280.5l118.1-280.5L972.1,302.3L972.1,302.3z"/>
	</g>
</g>
<rect x="-518.4" y="74.1" class="st5" width="346.5" height="346.5"/>
<rect x="-509.4" y="602.1" class="st6" width="429" height="429"/>
</svg>
