<?xml version="1.0" encoding="utf-8"?>
<!-- Generator: Adobe Illustrator 22.1.0, SVG Export Plug-In . SVG Version: 6.00 Build 0)  -->
<svg version="1.1" id="Layer_1" xmlns="http://www.w3.org/2000/svg" xmlns:xlink="http://www.w3.org/1999/xlink" x="0px" y="0px"
	 viewBox="0 0 1080 1080" style="enable-background:new 0 0 1080 1080;" xml:space="preserve">
<style type="text/css">
	.st0{fill:#1A202C;}
	.st1{fill:url(#SVGID_1_);}
	.st2{fill:url(#SVGID_2_);}
</style>
<rect class="st0" width="1080" height="1080"/>
<g>
	<g>
		<linearGradient id="SVGID_1_" gradientUnits="userSpaceOnUse" x1="116.1" y1="508.75" x2="972.1122" y2="508.75">
			<stop  offset="0" style="stop-color:#FF554B"/>
			<stop  offset="1" style="stop-color:#F9C529"/>
		</linearGradient>
		<path class="st1" d="M271.4,301.8v287.5c0,69.7-56.7,126.4-126.4,126.4h-28.9V612.4H145c12.4,0,22.4-10,22.4-22.4V302.3
			L271.4,301.8z"/>
		<linearGradient id="SVGID_2_" gradientUnits="userSpaceOnUse" x1="116.1305" y1="508.95" x2="972.1428" y2="508.95">
			<stop  offset="0" style="stop-color:#FF554B"/>
			<stop  offset="1" style="stop-color:#F9C529"/>
		</linearGradient>
		<path class="st2" d="M972.1,302.3L797.9,715.6H685.8l-36-85l-36,85H501.6L327.5,302.3h112.1l118.1,280.5l36-85l-82.1-195.4h112.1
			l118.1,280.5l118.1-280.5L972.1,302.3L972.1,302.3z"/>
	</g>
</g>
</svg>
