<svg width="450" height="500" viewBox="0 0 450 500" fill="none" xmlns="http://www.w3.org/2000/svg">
<g clip-path="url(#clip0)">
<path opacity="0.4" d="M409.28 242.99C431.266 242.99 449.09 232.697 449.09 220C449.09 207.303 431.266 197.01 409.28 197.01C387.294 197.01 369.47 207.303 369.47 220C369.47 232.697 387.294 242.99 409.28 242.99Z" fill="#D6D8E5"/>
<path d="M415.57 14C417.12 11.5 428.99 9.86 432.89 19.91C434.37 23.73 434.15 33.47 435.39 39.6C436.63 45.73 439.54 49.19 440.59 54.16C441.64 59.13 439.93 67.48 428 69C416.07 70.52 406.82 66.27 404 62.46C401.18 58.65 401.11 50.53 404.05 46.17C406.99 41.81 409.22 38.27 409.15 32.6L415.57 14Z" fill="#632A08"/>
<path d="M401.35 56.11C401.35 56.11 398.54 75.95 403.85 90.11C409.16 104.27 407.7 86.47 407.7 86.47L406.42 82.26C406.42 82.26 405.35 66 405.79 62C406.23 58 406.13 54.6 406.42 54.28C406.71 53.96 405.36 53.33 404.8 53.28C404.24 53.23 401.35 56.11 401.35 56.11Z" fill="#FFCEA9"/>
<path d="M423.41 12.29C423.41 12.29 414.47 9.72 409.05 14.55C407.262 16.1956 405.96 18.3006 405.287 20.6353C404.613 22.97 404.594 25.4449 405.23 27.79C405.95 30.61 407.4 34.46 409.64 34.67C411.88 34.88 423.41 12.29 423.41 12.29Z" fill="#632A08"/>
<path d="M426.82 36.66C426.82 36.66 426.24 46.66 426.42 47.35C426.6 48.04 430.33 48.79 431.37 49.66C432.41 50.53 425.96 60.66 422.67 62.13C419.38 63.6 409.21 59.8 408.51 54.74C407.85 50.08 411.42 46.46 412.79 45.2C413.724 45.1067 414.663 45.0833 415.6 45.13L415.9 40.3C420.35 38.88 426.82 36.66 426.82 36.66Z" fill="#FFCEA9"/>
<path d="M428.19 48.32C430.99 48.75 434.19 50.25 434.62 51.78C435.14 53.57 436.24 61.99 433.82 68.4C431.4 74.81 429.77 78.89 428.37 81.65C428.37 81.65 416.27 86.85 406.51 80.79C406.51 80.79 405.83 73.92 405.79 70.24C396.79 62.38 404.48 52.69 412.12 45.16C413.035 45.0801 413.955 45.0801 414.87 45.16C414.87 45.16 408.06 53.16 412.79 57.79C422.93 54.69 424.94 50.14 428.19 48.32Z" fill="#F4F4F4"/>
<path d="M408.22 24.32C409.22 17.92 413.84 13.09 420.44 13.48C422.112 13.5732 423.749 13.9953 425.257 14.722C426.766 15.4488 428.116 16.466 429.231 17.7154C430.345 18.9648 431.203 20.4218 431.753 22.003C432.304 23.5842 432.537 25.2585 432.44 26.93C432.323 28.8735 431.758 30.7635 430.788 32.4517C429.818 34.1398 428.47 35.5803 426.85 36.66C426.623 37.628 426.288 38.5673 425.85 39.46C423.5 42.18 417.3 43.91 415.25 43.93C413.48 43.93 411.95 42.3 410.25 39.55C406.79 33.83 407.67 27.48 408.22 24.32Z" fill="#FFCEA9"/>
<path d="M422.49 13.59C427.12 14.5 430.92 15.8 432.18 20.35C433.04 23.48 434.18 29.44 433.09 31.96L432.43 33.77L426.82 36.66C426.82 36.66 424.21 34.48 425.02 28.09C424.989 27.2253 424.715 26.3868 424.23 25.67C423.882 25.0668 423.623 24.4168 423.46 23.74C422.794 22.0157 421.496 20.6102 419.83 19.81C415.65 17.47 409.54 19.49 408.69 20.34C409.865 17.8011 411.879 15.7442 414.392 14.515C416.905 13.2857 419.764 12.9591 422.49 13.59V13.59Z" fill="#632A08"/>
<path d="M435 94.85C436 88.37 438 84.16 437.08 80.6C435.066 73.3853 432.429 66.3589 429.2 59.6C427.2 55.6 427.77 52.76 429.89 51.17C432.28 49.38 434.56 50.17 436.71 54.63C439.41 60.25 442.46 66.02 443.94 74.39C444.67 78.45 445.05 82.39 443.74 90.73C442.82 96.56 440.97 99.83 438.74 105.3C438.13 106.79 434.06 100.35 435 94.85Z" fill="#FFCEA9"/>
<path d="M430.9 215.78C428.56 217.69 424.9 216.37 424.74 216.55C422.35 218.94 418.8 221.02 416.15 223.1C414.69 224.25 412.42 225.79 412.83 227.99C413.57 231.94 419.89 230.73 422.27 229.52C424.65 228.31 426.6 226.31 428.86 224.91C430.46 223.91 432.05 223.39 432.3 221.36C432.45 220.13 431.31 215.74 430.9 215.78Z" fill="#FC843D"/>
<path d="M432.27 220.54C431.96 222.54 430.4 223.02 428.8 224.01C426.51 225.44 424.49 227.49 422.11 228.7C419.9 229.81 414.41 230.92 412.86 228.1C413.7 231.91 419.91 230.71 422.27 229.52C424.63 228.33 426.6 226.31 428.86 224.91C430.46 223.91 432.05 223.39 432.3 221.36C432.318 221.086 432.308 220.812 432.27 220.54V220.54Z" fill="#FC843D"/>
<path d="M414.46 212.5C412.32 214.25 409.08 213.27 408.92 213.43C406.74 215.62 403.5 217.5 401.08 219.43C399.74 220.49 397.65 221.89 398.03 223.92C398.71 227.53 404.49 226.42 406.68 225.31C408.87 224.2 410.68 222.37 412.68 221.09C414.15 220.18 415.6 219.7 415.83 217.84C416 216.69 414.84 212.46 414.46 212.5Z" fill="#FC843D"/>
<path d="M415.84 217.06C415.55 218.84 414.12 219.33 412.66 220.24C410.56 221.55 408.66 223.43 406.53 224.53C404.53 225.53 399.53 226.53 398.06 223.99C398.83 227.47 404.52 226.38 406.68 225.28C408.84 224.18 410.68 222.34 412.68 221.06C414.15 220.15 415.6 219.67 415.83 217.81C415.862 217.561 415.866 217.31 415.84 217.06V217.06Z" fill="#FC843D"/>
<path d="M401.83 103.53C402.83 95.46 405.83 83.72 405.83 83.72C408.656 85.0427 411.713 85.8003 414.83 85.95C420.04 86.22 428.38 84.63 428.38 84.63C429.83 87.1725 431.419 89.633 433.14 92C435.47 95.23 439.99 102.32 438.9 114.69C438.18 122.78 433.65 157.12 433.65 157.12C435.415 162.919 436.354 168.939 436.44 175C436.39 180 435.08 188.48 433.6 196.33L430.9 215.82C430.9 215.82 427.3 218.42 424.74 216.59L425.06 197.51C424.75 192.84 424.28 185.95 423.99 181.51C423.5 174.35 422.22 162.97 421.85 160.13C421.48 157.29 420.57 152.33 420.13 146.76C419.69 141.19 417.6 112.93 417.6 112.93L417.31 118.23C417.31 118.23 417.04 126.82 415.8 137.43C414.56 148.04 414.13 152.74 414.13 152.74C414.13 152.74 416.28 156.68 416.55 159.59C416.77 161.88 419.39 180.01 417.82 189.23L414.61 212.68C413.808 213.231 412.887 213.585 411.923 213.712C410.958 213.839 409.977 213.735 409.06 213.41L407.17 189.78C405.9 180.78 403.17 161.72 402.8 159.24C402.26 155.98 401.8 154.37 401.2 144.12C400.6 133.87 400.8 111.61 401.83 103.53Z" fill="#FFCEA9"/>
<path d="M428.37 81.65L435.37 95.65C435.37 95.65 445.98 111.19 434.99 151.12L437 163.41C437 163.41 416.18 176.77 402.25 163.41C402.25 163.41 397.42 126.51 399.99 109.49C401.416 99.7026 403.586 90.038 406.48 80.58C406.48 80.58 409.89 84.35 427.48 81.86" fill="#FC843D"/>
<path d="M440.85 62.46C440.85 62.46 436.02 67.27 430.29 66.67L427.54 57.31C427.54 57.31 425.75 52.41 429.93 50.31C434.11 48.21 438.45 52.87 440.85 62.46Z" fill="#EDEDED"/>
<path d="M412.12 45.16C412.12 45.16 406.59 43.48 400.72 55.72L402.91 57.05C402.91 57.05 408.69 48.31 412.12 45.16Z" fill="#EDEDED"/>
<path opacity="0.4" d="M39.81 336.49C61.7965 336.49 79.62 326.197 79.62 313.5C79.62 300.803 61.7965 290.51 39.81 290.51C17.8235 290.51 0 300.803 0 313.5C0 326.197 17.8235 336.49 39.81 336.49Z" fill="#D6D8E5"/>
<path d="M19.39 306.44C22.24 308.76 26.44 306.64 26.65 306.85C29.9977 309.956 33.5094 312.88 37.17 315.61C38.94 317.01 41.71 318.87 41.17 321.56C40.27 326.36 32.59 324.88 29.69 323.41C26.79 321.94 24.42 319.51 21.69 317.81C19.69 316.59 17.8 315.96 17.5 313.49C17.34 312 18.88 306.38 19.39 306.44Z" fill="#FC843D"/>
<path d="M17.57 312.49C17.94 314.86 19.84 315.49 21.79 316.72C24.57 318.45 27.03 320.95 29.93 322.42C32.61 323.77 39.29 325.12 41.17 321.69C40.17 326.32 32.6 324.87 29.73 323.41C26.86 321.95 24.46 319.51 21.73 317.81C19.73 316.59 17.84 315.96 17.54 313.49C17.5128 313.157 17.5229 312.821 17.57 312.49Z" fill="#FC843D"/>
<path d="M44.12 297.25C46.96 299.57 51.95 297.03 52.12 297.25C55.0883 300.251 58.2233 303.082 61.51 305.73C63.29 307.13 66.06 308.99 65.51 311.68C64.61 316.48 56.93 315 54.03 313.53C51.13 312.06 48.76 309.63 46.03 307.93C44.03 306.71 42.15 306.08 41.85 303.61C41.73 302.12 43.61 297.19 44.12 297.25Z" fill="#FC843D"/>
<path d="M42.0001 303C42.3801 305.37 44.2801 306 46.2201 307.23C49.0101 308.96 51.4701 311.46 54.3601 312.93C57.0401 314.28 63.7301 315.63 65.6101 312.2C64.6101 316.83 57.0301 315.38 54.1601 313.92C51.2901 312.46 48.9001 310.02 46.1601 308.32C44.2101 307.1 42.2801 306.47 41.9801 304C41.9487 303.667 41.9554 303.331 42.0001 303V303Z" fill="#FC843D"/>
<path d="M19.22 201.26C19.36 205.57 20.7 224.26 21.3 234.19C21.9 244.12 22.04 256.19 22.04 256.19C22.04 256.19 20.33 263.41 19.22 271.89C18.11 280.37 19.22 307.14 19.22 307.14C20.3092 307.839 21.576 308.21 22.87 308.21C24.164 308.21 25.4308 307.839 26.52 307.14C26.52 307.14 31.08 285.72 33.19 276.07C35.3 266.42 35.67 260.85 36.77 254.87C38.09 247.63 40.95 213.87 40.95 213.87L42.09 213.94L45.09 252.07C44.1525 254.879 43.509 257.778 43.17 260.72C42.34 266.93 44.04 298.18 44.04 298.18C45.2576 298.857 46.6381 299.185 48.03 299.129C49.4219 299.072 50.7713 298.633 51.93 297.86C51.93 297.86 59.55 256.47 59.55 250.17C59.55 246.01 58.84 191.08 58.84 191.08L19.22 201.26Z" fill="#FC843D"/>
<path d="M29.5501 118C29.5501 118 30.0401 127.39 29.8301 128.22C29.6201 129.05 25.5101 131.81 24.3201 132.8C23.1301 133.79 30.8201 141.37 34.5501 143.08C38.2801 144.79 50.1401 140.28 50.3501 134.46C50.5601 128.64 48.3501 123.75 46.5001 123.46C44.6501 123.17 29.5501 118 29.5501 118Z" fill="#FFCEA9"/>
<path d="M55.28 135.42C55.83 131.28 53.1 127.34 55.75 124.04C65.02 133.13 63.84 157.19 65.95 172.58C72.83 179.78 86.67 186.87 90.57 188.58C91.28 188.9 91.89 189.24 91.75 190.01C91.19 193.01 90.32 194.15 88.53 197.01C79.37 193.06 72.77 190.79 61.33 179.92C60.2448 178.748 59.2737 177.476 58.43 176.12C55.16 166.4 54.34 142.57 55.28 135.42Z" fill="#FFCEA9"/>
<path d="M28.5 129.84C28.5 129.84 35.32 140 44.83 141C47.83 138 48.1 127.52 43.95 124.16C43.95 124.16 47.77 121.08 50.38 121.68C53.1828 123.379 55.2698 126.042 56.25 129.17C58.6695 136.159 59.8045 143.527 59.6 150.92C59.44 160.92 59.6 191.34 59.6 191.34C59.6 191.34 58.27 197.78 49.67 202.57C41.07 207.36 34.67 207.83 28.84 206.47C24.02 205.35 20.04 203.65 18.39 200.16C18.82 193.16 21.94 174.94 20.77 166.16C19.6 157.38 17.77 150.81 17.27 143.71C16.77 136.61 18.21 136.71 21.77 134.22C23.9064 132.602 26.1554 131.138 28.5 129.84V129.84Z" fill="#F4F4F4"/>
<path d="M50.81 104C49.69 96.71 44.44 91.18 36.92 91.6C33.0786 91.8142 29.4795 93.5452 26.9142 96.4125C24.3488 99.2798 23.0272 103.049 23.24 106.89C23.3629 109.103 23.9966 111.258 25.0913 113.185C26.186 115.113 27.7121 116.761 29.55 118C29.8132 119.106 30.2059 120.176 30.72 121.19C33.37 124.3 41.42 126.19 43.72 125.89C46.72 125.47 48.3 124.23 49.72 120.99C52.21 115.24 51.43 107.59 50.81 104Z" fill="#FFCEA9"/>
<path d="M29.5501 118L30.2401 111.64C30.2401 111.64 25.0001 98.16 37.3301 100.75C45.4301 102.45 47.4701 103.19 49.9401 97.75C52.4101 92.31 43.7001 87.42 33.3701 88.75C29.8119 89.1251 26.5242 90.8222 24.1575 93.5056C21.7909 96.1889 20.5177 99.6628 20.5901 103.24C20.8601 107.27 21.9301 115.37 29.5501 118Z" fill="#632A08"/>
<path d="M15.1701 139.47C18.7301 138.47 16.0201 139.3 18.7301 138.47C28.0001 147.57 26.8501 163.15 28.9501 178.55C34.0701 187.01 53.0701 198.48 53.0701 198.48C53.3101 200.12 52.7301 200.6 50.6801 203.91C41.5301 199.96 33.8601 196.55 22.4201 185.69C21.9701 185.26 21.3101 185.15 21.1201 184.56C17.8501 174.73 14.2201 146.63 15.1701 139.47Z" fill="#FFCEA9"/>
<path d="M99.71 158.44L85.9 205.66L55.6 217.77L66.65 171.77L99.71 158.44Z" fill="#F4F4F4"/>
<path d="M48.29 198.8C48.74 197.19 49.91 197.59 51.22 197.99C52.6407 198.565 54.2013 198.701 55.7 198.38C56.95 197.99 57.85 196.92 58.91 196.21C59.5162 195.849 60.2048 195.649 60.91 195.63C60.85 196.04 60.22 198.44 60.22 198.44C60.22 198.44 66.86 198.51 67.54 198.37C67.7652 198.339 67.9943 198.378 68.197 198.481C68.3997 198.583 68.5663 198.745 68.6748 198.945C68.7833 199.145 68.8286 199.373 68.8045 199.598C68.7804 199.824 68.6882 200.038 68.54 200.21L68.99 200.14C70.35 199.84 70.93 201.92 69.56 202.23C69.2 202.31 68.83 202.35 68.45 202.4C69.34 202.74 69.56 204.21 68.45 204.4L68.11 204.46C67.9539 204.519 67.7865 204.543 67.62 204.53H67.41C67.4415 204.689 67.4404 204.852 67.4066 205.01C67.3728 205.169 67.3071 205.318 67.2135 205.45C67.1199 205.582 67.0004 205.694 66.8622 205.778C66.7241 205.862 66.5702 205.917 66.41 205.94C63.17 206.37 58.41 207.66 55.47 204.99C53.4355 204.789 51.4485 204.252 49.59 203.4C47.8 202.55 47.75 200.73 48.29 198.8Z" fill="#FFCEA9"/>
<path d="M81.44 194.94H81.89C81.7107 194.799 81.5784 194.608 81.511 194.39C81.4435 194.172 81.444 193.939 81.5125 193.722C81.581 193.505 81.7141 193.313 81.8941 193.174C82.0741 193.034 82.2925 192.952 82.52 192.94C83.22 192.94 90.05 191.51 90.05 191.51L90.87 188.7C90.87 188.54 92.06 189.26 92.1 189.29C92.6783 189.669 93.1638 190.173 93.5204 190.765C93.8771 191.357 94.0957 192.022 94.16 192.71C94.1932 193.677 94.0334 194.641 93.69 195.546C93.3466 196.451 92.8265 197.278 92.16 197.98C90.9325 199.219 89.2736 199.936 87.53 199.98C86.7 200.03 85.9 200.07 85.19 200.13C85.0329 200.13 84.8774 200.099 84.7323 200.038C84.5873 199.978 84.4557 199.889 84.345 199.778C84.2344 199.666 84.1469 199.534 84.0877 199.388C84.0285 199.243 83.9987 199.087 84 198.93H83.79C83.6289 198.968 83.4612 198.968 83.3 198.93H82.95C81.79 198.93 81.7 197.49 82.49 196.93C82.12 196.93 81.74 197 81.37 197C79.92 197.09 80 194.93 81.44 194.94Z" fill="#FFCEA9"/>
<path d="M59.15 141.58C59.15 141.58 62.65 141.4 64.1 139.36C63.83 135.87 59.36 122.62 50.38 121.63C52.8279 123.345 54.7691 125.687 56 128.41C57.63 132.4 59.15 141.58 59.15 141.58Z" fill="#EDEDED"/>
<path d="M13.55 159.09C13.55 159.09 22.49 162.17 28.79 156.99C29.48 155.8 25.14 140.59 25.14 140.59C25.14 140.59 21.39 132.81 15.52 135.9C9.65002 138.99 13.55 159.09 13.55 159.09Z" fill="#EDEDED"/>
<path opacity="0.4" d="M104.7 404.21C107.55 404.21 109.86 402.876 109.86 401.23C109.86 399.584 107.55 398.25 104.7 398.25C101.85 398.25 99.54 399.584 99.54 401.23C99.54 402.876 101.85 404.21 104.7 404.21Z" fill="#D6D8E5"/>
<path opacity="0.4" d="M201.34 459.32C204.19 459.32 206.5 457.986 206.5 456.34C206.5 454.694 204.19 453.36 201.34 453.36C198.49 453.36 196.18 454.694 196.18 456.34C196.18 457.986 198.49 459.32 201.34 459.32Z" fill="#D6D8E5"/>
<path opacity="0.4" d="M368.85 357.16C371.7 357.16 374.01 355.826 374.01 354.18C374.01 352.534 371.7 351.2 368.85 351.2C366 351.2 363.69 352.534 363.69 354.18C363.69 355.826 366 357.16 368.85 357.16Z" fill="#D6D8E5"/>
<path d="M101.34 300.31V400.63C101.363 400.94 101.467 401.238 101.643 401.495C101.819 401.751 102.059 401.957 102.34 402.09C103.125 402.49 103.994 402.698 104.875 402.698C105.756 402.698 106.625 402.49 107.41 402.09C107.69 401.956 107.93 401.75 108.106 401.494C108.281 401.238 108.386 400.94 108.41 400.63V400.63V300.31H101.34Z" fill="#C1C4D3"/>
<path d="M198.21 339.35V455.78C198.227 456.081 198.319 456.374 198.478 456.631C198.637 456.887 198.858 457.1 199.12 457.25C199.792 457.648 200.559 457.858 201.34 457.858C202.121 457.858 202.888 457.648 203.56 457.25C203.823 457.101 204.046 456.888 204.206 456.632C204.367 456.375 204.461 456.082 204.48 455.78V455.78V339.35H198.21Z" fill="#C1C4D3"/>
<path d="M365.71 258.48V353.42C365.728 353.721 365.822 354.013 365.982 354.268C366.143 354.523 366.366 354.734 366.63 354.88C367.3 355.278 368.065 355.488 368.845 355.488C369.624 355.488 370.39 355.278 371.06 354.88C371.324 354.734 371.547 354.523 371.708 354.268C371.868 354.013 371.962 353.721 371.98 353.42V353.42V258.48H365.71Z" fill="#C1C4D3"/>
<path d="M201.34 369.23L95.08 307.88V300.71L201.34 362.07V369.23Z" fill="#62C8E8"/>
<path d="M380.5 258.84L201.32 362.29L95.05 300.94L274.23 197.49L380.5 258.84Z" fill="#6CD4FF"/>
<path d="M380.52 265.78L201.34 369.23V362.07L380.52 258.62V265.78Z" fill="#5CBFD6"/>
<path d="M329.38 238.2L300.81 262.13L274.71 251.74L303.28 227.81L329.38 238.2Z" fill="#F4F4F4"/>
<path d="M322.75 239.31L287.16 259.86L264.75 246.92L300.34 226.37L322.75 239.31Z" fill="#F4F4F4"/>
<path d="M289.54 254.31L287.36 255.57L272.58 247.04L274.76 245.78L289.54 254.31Z" fill="#D6D8E5"/>
<path d="M294.44 251.48L292.26 252.74L277.49 244.21L279.67 242.95L294.44 251.48Z" fill="#D6D8E5"/>
<path d="M299.16 248.76L296.98 250.01L282.21 241.49L284.39 240.23L299.16 248.76Z" fill="#D6D8E5"/>
<path d="M310.24 242.36L308.06 243.62L299.46 238.66L301.64 237.4L310.24 242.36Z" fill="#D6D8E5"/>
<path d="M314.96 239.64L312.78 240.89L304.18 235.93L306.36 234.67L314.96 239.64Z" fill="#D6D8E5"/>
<path d="M291.19 258.3C291.78 258.05 322.75 239.3 322.75 239.3L290.4 258L291.19 258.3Z" fill="#D6D6D6"/>
<path opacity="0.2" d="M296.25 287.25C300.536 287.25 304.01 285.244 304.01 282.77C304.01 280.296 300.536 278.29 296.25 278.29C291.964 278.29 288.49 280.296 288.49 282.77C288.49 285.244 291.964 287.25 296.25 287.25Z" fill="black"/>
<path d="M304.77 282.13V270.18L289.28 270.57V281.57C288.99 282.89 289.72 284.28 291.49 285.3C293.194 286.168 295.078 286.62 296.99 286.62C298.902 286.62 300.786 286.168 302.49 285.3C303.118 285.023 303.661 284.583 304.062 284.026C304.463 283.468 304.707 282.814 304.77 282.13V282.13Z" fill="#A6CE28"/>
<path d="M297.01 274.66C301.296 274.66 304.77 272.654 304.77 270.18C304.77 267.706 301.296 265.7 297.01 265.7C292.724 265.7 289.25 267.706 289.25 270.18C289.25 272.654 292.724 274.66 297.01 274.66Z" fill="#BCD64D"/>
<path d="M303.54 270.18C303.54 270.91 302.94 271.68 301.88 272.28C300.533 272.999 299.036 273.39 297.51 273.42H297C295.305 273.456 293.63 273.06 292.13 272.27C291.08 271.67 290.47 270.9 290.47 270.17C290.47 269.44 291.08 268.68 292.13 268.07C293.63 267.28 295.305 266.884 297 266.92H297.5C299.026 266.951 300.523 267.341 301.87 268.06C302.94 268.69 303.54 269.45 303.54 270.18Z" fill="#28221C"/>
<path opacity="0.07" d="M303.54 270.18C303.54 270.91 302.94 271.68 301.88 272.28C300.542 273.024 299.036 273.415 297.505 273.415C295.974 273.415 294.468 273.024 293.13 272.28C292.08 271.68 291.47 270.91 291.47 270.18C291.47 269.45 292.08 268.69 293.13 268.08C294.468 267.336 295.974 266.945 297.505 266.945C299.036 266.945 300.542 267.336 301.88 268.08C302.94 268.69 303.54 269.45 303.54 270.18Z" fill="white"/>
<path d="M303.64 275.71L301.99 274.76L301.19 275.23L301.99 275.69V275.99L303.53 276.88V277.17C303.901 277.7 304.235 278.255 304.53 278.83L304.59 278.78V282.63C304.59 283.63 304 283.3 303.74 283.15L302.01 282.15L301.21 282.62L302.01 283.08V283.38L303.74 284.38C303.92 284.485 304.111 284.569 304.31 284.63L304.2 285.12L305.1 284.61C305.291 284.447 305.439 284.24 305.53 284.006C305.62 283.772 305.651 283.519 305.62 283.27V279.27C305.582 278.565 305.384 277.878 305.041 277.262C304.697 276.645 304.219 276.114 303.64 275.71Z" fill="#8DA01F"/>
<path d="M302.92 284.85L301.19 283.85V282.62L302.92 283.62C303.17 283.76 303.77 284.1 303.77 283.09V279.09C303.74 278.75 303.635 278.421 303.462 278.127C303.289 277.833 303.053 277.581 302.77 277.39L301.2 276.48V275.25L302.85 276.2C303.426 276.597 303.905 277.119 304.251 277.726C304.597 278.334 304.802 279.012 304.85 279.71V283.71C304.83 284.79 304.33 285.66 302.92 284.85Z" fill="#99B524"/>
<path opacity="0.2" d="M143.16 303.37C147.446 303.37 150.92 301.364 150.92 298.89C150.92 296.416 147.446 294.41 143.16 294.41C138.874 294.41 135.4 296.416 135.4 298.89C135.4 301.364 138.874 303.37 143.16 303.37Z" fill="black"/>
<path d="M151.68 298.25V286.3L136.19 286.69V297.69C135.9 299.02 136.64 300.41 138.4 301.42C140.104 302.288 141.988 302.74 143.9 302.74C145.812 302.74 147.696 302.288 149.4 301.42C150.029 301.144 150.572 300.704 150.973 300.146C151.374 299.589 151.618 298.934 151.68 298.25V298.25Z" fill="#F7B03E"/>
<path d="M143.92 290.78C148.206 290.78 151.68 288.774 151.68 286.3C151.68 283.826 148.206 281.82 143.92 281.82C139.634 281.82 136.16 283.826 136.16 286.3C136.16 288.774 139.634 290.78 143.92 290.78Z" fill="#FCC068"/>
<path d="M150.45 286.3C150.45 287.03 149.84 287.79 148.79 288.4C147.441 289.113 145.945 289.504 144.42 289.54H143.92C142.225 289.576 140.55 289.18 139.05 288.39C137.99 287.78 137.39 287.02 137.39 286.29C137.39 285.56 137.99 284.79 139.05 284.18C140.551 283.394 142.226 283.001 143.92 283.04H144.42C145.945 283.069 147.442 283.456 148.79 284.17C149.84 284.8 150.45 285.57 150.45 286.3Z" fill="#28221C"/>
<path opacity="0.07" d="M150.45 286.3C150.45 287.03 149.84 287.79 148.79 288.4C147.452 289.144 145.946 289.535 144.415 289.535C142.884 289.535 141.378 289.144 140.04 288.4C139.04 287.79 138.38 287.03 138.38 286.3C138.38 285.57 138.99 284.8 140.04 284.19C141.378 283.446 142.884 283.055 144.415 283.055C145.946 283.055 147.452 283.446 148.79 284.19C149.84 284.8 150.45 285.57 150.45 286.3Z" fill="white"/>
<path d="M150.54 291.83L148.9 290.88L148.09 291.34L148.9 291.81V292.11L150.44 293L150.39 293.29C150.764 293.818 151.098 294.373 151.39 294.95L151.44 294.9V298.75C151.44 299.75 150.85 299.42 150.6 299.27L148.87 298.27L148.06 298.73L148.87 299.2V299.5L150.6 300.5C150.776 300.605 150.964 300.689 151.16 300.75L151.06 301.24L151.96 300.73C152.155 300.568 152.306 300.359 152.399 300.123C152.492 299.887 152.523 299.631 152.49 299.38V295.38C152.454 294.68 152.26 293.996 151.922 293.382C151.584 292.767 151.112 292.236 150.54 291.83V291.83Z" fill="#C9883A"/>
<path d="M149.83 301L148.09 300V298.76L149.83 299.76C150.08 299.91 150.67 300.25 150.67 299.24V295.24C150.637 294.9 150.53 294.571 150.357 294.276C150.185 293.98 149.95 293.726 149.67 293.53L148.09 292.63V291.39L149.74 292.39C150.316 292.786 150.796 293.308 151.142 293.916C151.488 294.524 151.693 295.202 151.74 295.9V299.9C151.74 300.91 151.24 301.78 149.83 301Z" fill="#E09C3B"/>
<path opacity="0.2" d="M242.22 269.29L219.22 256C219.02 255.882 218.792 255.82 218.56 255.82C218.328 255.82 218.1 255.882 217.9 256L177.52 279.32L201.17 293L242.22 269.29Z" fill="black"/>
<path d="M243.31 266.68L220.31 253.39C220.11 253.272 219.882 253.21 219.65 253.21C219.418 253.21 219.19 253.272 218.99 253.39L178.61 276.71L202.29 290.38L243.31 266.68Z" fill="#F4F4F4"/>
<path d="M201.2 285.49L199.44 286.49C199.3 286.58 199.32 286.72 199.44 286.82L201.12 287.82C201.207 287.864 201.303 287.887 201.4 287.887C201.497 287.887 201.593 287.864 201.68 287.82L203.43 286.82C203.57 286.74 203.56 286.6 203.43 286.5L201.76 285.5C201.673 285.457 201.578 285.433 201.481 285.432C201.384 285.43 201.288 285.45 201.2 285.49V285.49Z" fill="#2B303F"/>
<path d="M203.68 284.06L201.93 285.06C201.78 285.14 201.8 285.29 201.93 285.38L203.6 286.38C203.687 286.422 203.783 286.443 203.88 286.443C203.977 286.443 204.073 286.422 204.16 286.38L205.91 285.38C206.06 285.3 206.04 285.15 205.91 285.06L204.24 284.06C204.154 284.014 204.058 283.989 203.96 283.989C203.862 283.989 203.766 284.014 203.68 284.06Z" fill="#2B303F"/>
<path d="M206.19 282.61L204.44 283.61C204.3 283.69 204.31 283.84 204.44 283.93L206.11 284.93C206.197 284.972 206.293 284.993 206.39 284.993C206.487 284.993 206.583 284.972 206.67 284.93L208.43 283.93C208.57 283.85 208.55 283.7 208.43 283.61L206.75 282.61C206.664 282.564 206.568 282.539 206.47 282.539C206.372 282.539 206.276 282.564 206.19 282.61V282.61Z" fill="#2B303F"/>
<path d="M208.65 281.19L206.89 282.19C206.75 282.27 206.77 282.42 206.89 282.51L208.57 283.51C208.656 283.556 208.752 283.581 208.85 283.581C208.948 283.581 209.044 283.556 209.13 283.51L210.88 282.51C211.03 282.43 211.01 282.28 210.88 282.19L209.21 281.19C209.123 281.148 209.027 281.127 208.93 281.127C208.833 281.127 208.737 281.148 208.65 281.19V281.19Z" fill="#2B303F"/>
<path d="M211.13 279.75L209.38 280.75C209.24 280.83 209.25 280.97 209.38 281.07L211.05 282.07C211.137 282.112 211.233 282.133 211.33 282.133C211.427 282.133 211.523 282.112 211.61 282.07L213.37 281.07C213.51 280.98 213.49 280.84 213.37 280.74L211.69 279.74C211.602 279.698 211.506 279.676 211.409 279.678C211.311 279.68 211.216 279.705 211.13 279.75V279.75Z" fill="#2B303F"/>
<path d="M213.62 278.32L211.86 279.32C211.72 279.41 211.74 279.55 211.86 279.65L213.54 280.65C213.626 280.696 213.722 280.721 213.82 280.721C213.918 280.721 214.014 280.696 214.1 280.65L215.85 279.65C215.99 279.57 215.98 279.42 215.85 279.33L214.18 278.33C214.093 278.287 213.998 278.263 213.901 278.262C213.804 278.26 213.708 278.28 213.62 278.32V278.32Z" fill="#2B303F"/>
<path d="M216.1 276.89L214.35 277.89C214.2 277.97 214.22 278.12 214.35 278.21L216.02 279.21C216.107 279.252 216.203 279.273 216.3 279.273C216.397 279.273 216.493 279.252 216.58 279.21L218.33 278.21C218.48 278.13 218.46 277.98 218.33 277.89L216.66 276.89C216.574 276.844 216.478 276.819 216.38 276.819C216.282 276.819 216.186 276.844 216.1 276.89Z" fill="#2B303F"/>
<path d="M218.58 275.45L216.83 276.45C216.69 276.54 216.7 276.68 216.83 276.78L218.5 277.78C218.587 277.824 218.683 277.847 218.78 277.847C218.877 277.847 218.973 277.824 219.06 277.78L220.82 276.78C220.96 276.7 220.94 276.56 220.82 276.46L219.14 275.46C219.053 275.417 218.958 275.393 218.861 275.392C218.764 275.39 218.668 275.41 218.58 275.45V275.45Z" fill="#2B303F"/>
<path d="M221.07 274L219.31 275C219.17 275.08 219.19 275.23 219.31 275.32L220.99 276.32C221.077 276.364 221.173 276.387 221.27 276.387C221.367 276.387 221.463 276.364 221.55 276.32L223.3 275.32C223.45 275.24 223.43 275.09 223.3 275L221.63 274C221.544 273.954 221.448 273.929 221.35 273.929C221.252 273.929 221.156 273.954 221.07 274V274Z" fill="#2B303F"/>
<path d="M223.55 272.58L221.8 273.58C221.66 273.66 221.67 273.8 221.8 273.9L223.47 274.9C223.557 274.942 223.653 274.963 223.75 274.963C223.847 274.963 223.943 274.942 224.03 274.9L225.79 273.9C225.93 273.81 225.91 273.67 225.79 273.57L224.11 272.57C224.022 272.528 223.926 272.506 223.829 272.508C223.732 272.51 223.636 272.535 223.55 272.58V272.58Z" fill="#2B303F"/>
<path d="M226 271.15L224.24 272.15C224.1 272.23 224.12 272.38 224.24 272.47L225.92 273.47C226.006 273.516 226.102 273.541 226.2 273.541C226.298 273.541 226.394 273.516 226.48 273.47L228.23 272.47C228.37 272.39 228.36 272.24 228.23 272.15L226.56 271.15C226.473 271.108 226.377 271.087 226.28 271.087C226.183 271.087 226.087 271.108 226 271.15V271.15Z" fill="#2B303F"/>
<path d="M228.52 269.71L226.77 270.71C226.62 270.79 226.64 270.93 226.77 271.03L228.44 272.03C228.527 272.072 228.623 272.093 228.72 272.093C228.817 272.093 228.913 272.072 229 272.03L230.75 271.03C230.9 270.94 230.88 270.8 230.75 270.7L229.08 269.7C228.992 269.658 228.896 269.636 228.799 269.638C228.702 269.64 228.606 269.665 228.52 269.71V269.71Z" fill="#2B303F"/>
<path d="M231 268.28L229.25 269.28C229.11 269.37 229.12 269.51 229.25 269.61L230.92 270.61C231.007 270.654 231.103 270.677 231.2 270.677C231.297 270.677 231.393 270.654 231.48 270.61L233.24 269.61C233.38 269.53 233.36 269.39 233.24 269.29L231.56 268.29C231.473 268.247 231.378 268.223 231.281 268.222C231.184 268.22 231.088 268.24 231 268.28Z" fill="#2B303F"/>
<path d="M234.69 266.16L231.69 267.86C231.55 267.94 231.57 268.09 231.69 268.18L233.37 269.18C233.457 269.222 233.553 269.243 233.65 269.243C233.747 269.243 233.843 269.222 233.93 269.18L236.93 267.48C237.07 267.4 237.05 267.25 236.93 267.16L235.25 266.16C235.165 266.112 235.068 266.086 234.97 266.086C234.872 266.086 234.776 266.112 234.69 266.16V266.16Z" fill="#2B303F"/>
<path d="M202.47 282L200.72 283C200.58 283.08 200.59 283.22 200.72 283.32L202.39 284.32C202.477 284.362 202.573 284.383 202.67 284.383C202.767 284.383 202.863 284.362 202.95 284.32L204.71 283.32C204.85 283.23 204.83 283.09 204.71 282.99L203 282C202.917 281.961 202.827 281.941 202.735 281.941C202.643 281.941 202.553 281.961 202.47 282V282Z" fill="#2B303F"/>
<path d="M205 280.54L203.25 281.54C203.1 281.62 203.12 281.77 203.25 281.86L204.92 282.86C205.007 282.902 205.103 282.923 205.2 282.923C205.297 282.923 205.393 282.902 205.48 282.86L207.24 281.86C207.38 281.78 207.36 281.63 207.24 281.54L205.56 280.54C205.474 280.494 205.378 280.469 205.28 280.469C205.182 280.469 205.086 280.494 205 280.54V280.54Z" fill="#2B303F"/>
<path d="M207.45 279.1L205.7 280.1C205.55 280.19 205.57 280.33 205.7 280.43L207.37 281.43C207.457 281.474 207.553 281.497 207.65 281.497C207.747 281.497 207.843 281.474 207.93 281.43L209.68 280.43C209.83 280.35 209.81 280.2 209.68 280.11L208.01 279.11C207.923 279.067 207.828 279.043 207.731 279.042C207.634 279.04 207.538 279.06 207.45 279.1V279.1Z" fill="#2B303F"/>
<path d="M209.94 277.66L208.18 278.66C208.04 278.74 208.06 278.88 208.18 278.98L209.86 279.98C209.947 280.022 210.043 280.043 210.14 280.043C210.237 280.043 210.333 280.022 210.42 279.98L212.17 278.98C212.31 278.89 212.3 278.75 212.17 278.65L210.5 277.65C210.412 277.608 210.316 277.586 210.219 277.588C210.122 277.59 210.026 277.615 209.94 277.66V277.66Z" fill="#2B303F"/>
<path d="M212.41 276.24L210.65 277.24C210.51 277.32 210.53 277.47 210.65 277.56L212.33 278.56C212.416 278.606 212.512 278.631 212.61 278.631C212.708 278.631 212.804 278.606 212.89 278.56L214.64 277.56C214.78 277.48 214.77 277.33 214.64 277.24L212.97 276.24C212.883 276.198 212.787 276.177 212.69 276.177C212.593 276.177 212.497 276.198 212.41 276.24V276.24Z" fill="#2B303F"/>
<path d="M214.9 274.8L213.14 275.8C213 275.89 213.02 276.03 213.14 276.13L214.82 277.13C214.905 277.174 214.999 277.197 215.095 277.197C215.191 277.197 215.285 277.174 215.37 277.13L217.13 276.13C217.27 276.05 217.25 275.91 217.13 275.81L215.45 274.81C215.365 274.767 215.271 274.744 215.176 274.742C215.081 274.74 214.986 274.76 214.9 274.8V274.8Z" fill="#2B303F"/>
<path d="M217.38 273.36L215.63 274.36C215.49 274.44 215.5 274.58 215.63 274.68L217.3 275.68C217.387 275.722 217.483 275.743 217.58 275.743C217.677 275.743 217.773 275.722 217.86 275.68L219.62 274.68C219.76 274.59 219.74 274.45 219.62 274.35L217.94 273.35C217.852 273.308 217.756 273.286 217.659 273.288C217.561 273.29 217.466 273.315 217.38 273.36V273.36Z" fill="#2B303F"/>
<path d="M219.87 271.93L218.12 272.93C217.97 273.01 217.99 273.16 218.12 273.25L219.79 274.25C219.876 274.296 219.972 274.321 220.07 274.321C220.168 274.321 220.264 274.296 220.35 274.25L222.1 273.25C222.25 273.17 222.23 273.02 222.1 272.93L220.43 271.93C220.343 271.888 220.247 271.867 220.15 271.867C220.053 271.867 219.957 271.888 219.87 271.93V271.93Z" fill="#2B303F"/>
<path d="M222.36 270.49L220.61 271.49C220.46 271.58 220.48 271.72 220.61 271.82L222.28 272.82C222.367 272.864 222.463 272.887 222.56 272.887C222.657 272.887 222.753 272.864 222.84 272.82L224.59 271.82C224.74 271.74 224.72 271.6 224.59 271.5L222.92 270.5C222.833 270.457 222.738 270.433 222.641 270.432C222.544 270.43 222.448 270.45 222.36 270.49V270.49Z" fill="#2B303F"/>
<path d="M224.85 269.05L223.09 270.05C222.95 270.13 222.97 270.27 223.09 270.37L224.77 271.37C224.858 271.412 224.953 271.433 225.05 271.433C225.147 271.433 225.243 271.412 225.33 271.37L227.08 270.37C227.22 270.28 227.21 270.14 227.08 270.04L225.41 269.04C225.323 268.998 225.226 268.976 225.129 268.978C225.032 268.98 224.936 269.005 224.85 269.05Z" fill="#2B303F"/>
<path d="M227.34 267.62L225.58 268.62C225.44 268.7 225.46 268.85 225.58 268.94L227.26 269.94C227.346 269.986 227.442 270.011 227.54 270.011C227.638 270.011 227.734 269.986 227.82 269.94L229.57 268.94C229.71 268.86 229.7 268.71 229.57 268.62L227.9 267.62C227.813 267.578 227.717 267.557 227.62 267.557C227.523 267.557 227.428 267.578 227.34 267.62V267.62Z" fill="#2B303F"/>
<path d="M229.83 266.18L228.07 267.18C227.93 267.27 227.95 267.41 228.07 267.51L229.74 268.51C229.827 268.554 229.923 268.577 230.02 268.577C230.117 268.577 230.213 268.554 230.3 268.51L232.06 267.51C232.2 267.43 232.18 267.29 232.06 267.19L230.38 266.19C230.295 266.147 230.201 266.124 230.106 266.122C230.011 266.12 229.917 266.14 229.83 266.18V266.18Z" fill="#2B303F"/>
<path d="M200 283.41L197 285.11C196.86 285.2 196.88 285.34 197 285.44L198.68 286.44C198.767 286.484 198.863 286.507 198.96 286.507C199.057 286.507 199.153 286.484 199.24 286.44L202.19 284.73C202.33 284.65 202.31 284.5 202.19 284.41L200.51 283.41C200.43 283.374 200.343 283.356 200.255 283.356C200.167 283.356 200.08 283.374 200 283.41V283.41Z" fill="#2B303F"/>
<path d="M234.57 266.06L232.81 267.06C232.729 267.1 232.64 267.12 232.55 267.12C232.46 267.12 232.371 267.1 232.29 267.06L230.52 266.06C230.38 265.98 230.38 265.85 230.52 265.76L230.66 265.68C230.79 265.61 230.79 265.48 230.66 265.4L228.79 264.33C228.64 264.24 228.64 264.11 228.79 264.02L229.91 263.38C229.991 263.34 230.08 263.32 230.17 263.32C230.26 263.32 230.349 263.34 230.43 263.38L232.18 264.38L232.54 264.59L232.8 264.74L233.07 264.89L234.57 265.76C234.71 265.85 234.71 266 234.57 266.06Z" fill="#2B303F"/>
<path d="M191.58 279.92L189.82 280.92C189.68 281 189.7 281.14 189.82 281.24L191.5 282.24C191.586 282.282 191.68 282.303 191.775 282.303C191.87 282.303 191.964 282.282 192.05 282.24L193.81 281.24C193.95 281.15 193.93 281.01 193.81 280.91L192.13 279.91C192.044 279.868 191.95 279.847 191.854 279.848C191.758 279.85 191.664 279.875 191.58 279.92V279.92Z" fill="#2B303F"/>
<path d="M194.05 278.49L192.3 279.49C192.16 279.57 192.17 279.71 192.3 279.81L193.97 280.81C194.057 280.852 194.153 280.873 194.25 280.873C194.347 280.873 194.443 280.852 194.53 280.81L196.29 279.81C196.43 279.72 196.41 279.58 196.29 279.48L194.61 278.48C194.522 278.438 194.426 278.416 194.329 278.418C194.232 278.42 194.136 278.445 194.05 278.49V278.49Z" fill="#2B303F"/>
<path d="M196.53 277.06L194.78 278.06C194.63 278.14 194.65 278.28 194.78 278.38L196.45 279.38C196.537 279.422 196.633 279.443 196.73 279.443C196.827 279.443 196.923 279.422 197.01 279.38L198.76 278.38C198.91 278.29 198.89 278.15 198.76 278.05L197.09 277.05C197.002 277.008 196.906 276.986 196.809 276.988C196.712 276.99 196.616 277.015 196.53 277.06V277.06Z" fill="#2B303F"/>
<path d="M217.62 264.89L215.87 265.89C215.73 265.97 215.74 266.12 215.87 266.21L217.54 267.21C217.627 267.252 217.723 267.273 217.82 267.273C217.917 267.273 218.013 267.252 218.1 267.21L219.86 266.21C220 266.13 219.98 265.98 219.86 265.89L218.18 264.89C218.094 264.844 217.998 264.819 217.9 264.819C217.802 264.819 217.706 264.844 217.62 264.89V264.89Z" fill="#2B303F"/>
<path d="M220.1 263.46L218.35 264.46C218.2 264.54 218.22 264.69 218.35 264.78L220.02 265.78C220.107 265.822 220.203 265.843 220.3 265.843C220.397 265.843 220.493 265.822 220.58 265.78L222.33 264.78C222.48 264.7 222.46 264.55 222.33 264.46L220.66 263.46C220.574 263.414 220.478 263.389 220.38 263.389C220.282 263.389 220.186 263.414 220.1 263.46V263.46Z" fill="#2B303F"/>
<path d="M222.58 262L220.82 263C220.68 263.08 220.7 263.23 220.82 263.32L222.5 264.32C222.587 264.362 222.683 264.383 222.78 264.383C222.877 264.383 222.973 264.362 223.06 264.32L224.81 263.32C224.95 263.24 224.94 263.09 224.81 263L223.14 262C223.054 261.954 222.958 261.929 222.86 261.929C222.762 261.929 222.666 261.954 222.58 262V262Z" fill="#2B303F"/>
<path d="M225.05 260.6L223.3 261.6C223.16 261.68 223.17 261.83 223.3 261.92L224.97 262.92C225.057 262.962 225.153 262.983 225.25 262.983C225.347 262.983 225.443 262.962 225.53 262.92L227.29 261.92C227.43 261.84 227.41 261.69 227.29 261.6L225.61 260.6C225.524 260.554 225.428 260.529 225.33 260.529C225.232 260.529 225.136 260.554 225.05 260.6V260.6Z" fill="#2B303F"/>
<path d="M199.65 275.27L197.25 276.65C197.11 276.73 197.13 276.87 197.25 276.97L198.93 277.97C199.017 278.012 199.113 278.033 199.21 278.033C199.307 278.033 199.403 278.012 199.49 277.97L201.88 276.59C202.02 276.51 202 276.36 201.88 276.27L200.2 275.27C200.116 275.224 200.021 275.199 199.925 275.199C199.829 275.199 199.734 275.224 199.65 275.27Z" fill="#2B303F"/>
<path d="M215.15 266.32L212.75 267.7C212.61 267.78 212.63 267.92 212.75 268.02L214.43 269.02C214.517 269.062 214.613 269.083 214.71 269.083C214.807 269.083 214.903 269.062 214.99 269.02L217.38 267.64C217.52 267.56 217.51 267.41 217.38 267.32L215.71 266.32C215.624 266.274 215.528 266.249 215.43 266.249C215.332 266.249 215.236 266.274 215.15 266.32Z" fill="#2B303F"/>
<path d="M212 268.11L200.34 274.85C200.19 274.93 200.21 275.08 200.34 275.17L202.01 276.17C202.097 276.212 202.193 276.233 202.29 276.233C202.387 276.233 202.483 276.212 202.57 276.17L214.24 269.44C214.38 269.35 214.36 269.21 214.19 269.11L212.52 268.11C212.438 268.072 212.35 268.053 212.26 268.053C212.17 268.053 212.082 268.072 212 268.11V268.11Z" fill="#2B303F"/>
<path d="M200.74 280.19L198.99 281.19C198.84 281.27 198.86 281.41 198.99 281.51L200.66 282.51C200.747 282.554 200.843 282.577 200.94 282.577C201.037 282.577 201.133 282.554 201.22 282.51L202.98 281.51C203.12 281.43 203.1 281.29 202.98 281.19L201.3 280.19C201.213 280.146 201.117 280.123 201.02 280.123C200.923 280.123 200.827 280.146 200.74 280.19V280.19Z" fill="#2B303F"/>
<path d="M203.22 278.76L201.47 279.76C201.33 279.85 201.34 279.99 201.47 280.09L203.14 281.09C203.227 281.134 203.323 281.157 203.42 281.157C203.517 281.157 203.613 281.134 203.7 281.09L205.46 280.09C205.6 280.01 205.58 279.87 205.46 279.77L203.78 278.77C203.693 278.727 203.598 278.703 203.501 278.702C203.404 278.7 203.308 278.72 203.22 278.76Z" fill="#2B303F"/>
<path d="M205.7 277.33L203.95 278.33C203.81 278.41 203.82 278.56 203.95 278.65L205.62 279.65C205.706 279.696 205.802 279.721 205.9 279.721C205.998 279.721 206.094 279.696 206.18 279.65L207.94 278.65C208.08 278.57 208.06 278.42 207.94 278.33L206.26 277.33C206.173 277.286 206.077 277.263 205.98 277.263C205.883 277.263 205.787 277.286 205.7 277.33V277.33Z" fill="#2B303F"/>
<path d="M208.19 275.9L206.43 276.9C206.29 276.98 206.31 277.13 206.43 277.22L208.11 278.22C208.196 278.262 208.29 278.283 208.385 278.283C208.48 278.283 208.574 278.262 208.66 278.22L210.42 277.22C210.56 277.13 210.54 276.99 210.42 276.89L208.74 275.89C208.655 275.845 208.56 275.823 208.464 275.824C208.368 275.826 208.273 275.852 208.19 275.9Z" fill="#2B303F"/>
<path d="M210.67 274.46L208.91 275.46C208.77 275.54 208.79 275.68 208.91 275.78L210.59 276.78C210.677 276.824 210.773 276.847 210.87 276.847C210.967 276.847 211.063 276.824 211.15 276.78L212.9 275.78C213.04 275.7 213.03 275.56 212.9 275.46L211.23 274.46C211.143 274.416 211.047 274.393 210.95 274.393C210.853 274.393 210.757 274.416 210.67 274.46V274.46Z" fill="#2B303F"/>
<path d="M213.15 273L211.39 274C211.25 274.09 211.27 274.23 211.39 274.33L213.07 275.33C213.157 275.374 213.253 275.397 213.35 275.397C213.447 275.397 213.543 275.374 213.63 275.33L215.38 274.33C215.52 274.25 215.51 274.11 215.38 274.01L213.71 273.01C213.623 272.967 213.528 272.943 213.431 272.942C213.334 272.94 213.238 272.96 213.15 273V273Z" fill="#2B303F"/>
<path d="M215.63 271.6L213.87 272.6C213.73 272.68 213.75 272.83 213.87 272.92L215.55 273.92C215.636 273.966 215.732 273.991 215.83 273.991C215.928 273.991 216.024 273.966 216.11 273.92L217.86 272.92C218.01 272.84 217.99 272.69 217.86 272.6L216.19 271.6C216.103 271.556 216.007 271.533 215.91 271.533C215.813 271.533 215.717 271.556 215.63 271.6Z" fill="#2B303F"/>
<path d="M218.11 270.16L216.36 271.16C216.21 271.24 216.23 271.38 216.36 271.48L218.03 272.48C218.117 272.522 218.213 272.543 218.31 272.543C218.407 272.543 218.503 272.522 218.59 272.48L220.34 271.48C220.49 271.39 220.47 271.25 220.34 271.15L218.67 270.15C218.582 270.108 218.486 270.086 218.389 270.088C218.292 270.09 218.196 270.115 218.11 270.16V270.16Z" fill="#2B303F"/>
<path d="M220.59 268.73L218.84 269.73C218.69 269.81 218.71 269.95 218.84 270.05L220.51 271.05C220.597 271.094 220.693 271.117 220.79 271.117C220.887 271.117 220.983 271.094 221.07 271.05L222.82 270.05C222.97 269.97 222.95 269.83 222.82 269.73L221.15 268.73C221.063 268.686 220.967 268.663 220.87 268.663C220.773 268.663 220.677 268.686 220.59 268.73Z" fill="#2B303F"/>
<path d="M223.07 267.3L221.32 268.3C221.18 268.39 221.19 268.53 221.32 268.63L222.99 269.63C223.077 269.674 223.173 269.697 223.27 269.697C223.367 269.697 223.463 269.674 223.55 269.63L225.31 268.63C225.45 268.55 225.43 268.41 225.31 268.31L223.63 267.31C223.543 267.267 223.448 267.243 223.351 267.242C223.254 267.24 223.158 267.26 223.07 267.3V267.3Z" fill="#2B303F"/>
<path d="M225.55 265.87L223.8 266.87C223.66 266.95 223.67 267.1 223.8 267.19L225.47 268.19C225.557 268.234 225.653 268.257 225.75 268.257C225.847 268.257 225.943 268.234 226.03 268.19L227.79 267.19C227.93 267.11 227.91 266.96 227.79 266.87L226.11 265.87C226.024 265.824 225.928 265.799 225.83 265.799C225.732 265.799 225.636 265.824 225.55 265.87V265.87Z" fill="#2B303F"/>
<path d="M228 264.43L226.24 265.43C226.1 265.51 226.12 265.65 226.24 265.75L227.92 266.75C228.006 266.792 228.1 266.813 228.195 266.813C228.29 266.813 228.384 266.792 228.47 266.75L230.23 265.75C230.37 265.66 230.35 265.52 230.23 265.42L228.55 264.42C228.464 264.378 228.369 264.357 228.274 264.358C228.178 264.36 228.084 264.385 228 264.43V264.43Z" fill="#2B303F"/>
<path d="M198.26 281.63L194.63 283.72C194.49 283.8 194.51 283.95 194.63 284.04L196.31 285.04C196.395 285.084 196.489 285.107 196.585 285.107C196.681 285.107 196.775 285.084 196.86 285.04L200.49 282.95C200.64 282.86 200.62 282.72 200.49 282.63L198.82 281.63C198.734 281.584 198.638 281.559 198.54 281.559C198.442 281.559 198.346 281.584 198.26 281.63V281.63Z" fill="#2B303F"/>
<path d="M197.1 279.51L195.35 280.51C195.2 280.59 195.22 280.73 195.35 280.83L197.02 281.83C197.107 281.872 197.203 281.893 197.3 281.893C197.397 281.893 197.493 281.872 197.58 281.83L199.34 280.83C199.48 280.74 199.46 280.6 199.34 280.5L197.66 279.5C197.572 279.458 197.476 279.436 197.379 279.438C197.282 279.44 197.186 279.465 197.1 279.51V279.51Z" fill="#2B303F"/>
<path d="M199.58 278.08L197.83 279.08C197.69 279.17 197.7 279.31 197.83 279.41L199.5 280.41C199.587 280.454 199.683 280.477 199.78 280.477C199.877 280.477 199.973 280.454 200.06 280.41L201.82 279.41C201.96 279.33 201.94 279.19 201.82 279.09L200.14 278.09C200.053 278.047 199.958 278.023 199.861 278.022C199.764 278.02 199.668 278.04 199.58 278.08Z" fill="#2B303F"/>
<path d="M202.06 276.65L200.31 277.65C200.17 277.73 200.18 277.88 200.31 277.97L201.98 278.97C202.066 279.016 202.162 279.041 202.26 279.041C202.358 279.041 202.454 279.016 202.54 278.97L204.3 277.97C204.44 277.89 204.42 277.74 204.3 277.65L202.62 276.65C202.533 276.608 202.437 276.587 202.34 276.587C202.243 276.587 202.147 276.608 202.06 276.65Z" fill="#2B303F"/>
<path d="M204.55 275.22L202.79 276.22C202.65 276.3 202.67 276.45 202.79 276.54L204.47 277.54C204.556 277.582 204.65 277.603 204.745 277.603C204.84 277.603 204.934 277.582 205.02 277.54L206.78 276.54C206.92 276.46 206.9 276.31 206.78 276.22L205.1 275.22C205.016 275.174 204.921 275.149 204.825 275.149C204.729 275.149 204.634 275.174 204.55 275.22Z" fill="#2B303F"/>
<path d="M207 273.78L205.24 274.78C205.1 274.86 205.12 275 205.24 275.1L206.92 276.1C207.006 276.142 207.1 276.163 207.195 276.163C207.29 276.163 207.384 276.142 207.47 276.1L209.23 275.1C209.37 275.01 209.35 274.87 209.23 274.77L207.55 273.77C207.464 273.728 207.369 273.707 207.274 273.708C207.178 273.71 207.084 273.735 207 273.78V273.78Z" fill="#2B303F"/>
<path d="M209.51 272.35L207.75 273.35C207.61 273.43 207.63 273.57 207.75 273.67L209.43 274.67C209.517 274.714 209.613 274.737 209.71 274.737C209.807 274.737 209.903 274.714 209.99 274.67L211.74 273.67C211.88 273.59 211.87 273.45 211.74 273.35L210.07 272.35C209.983 272.306 209.887 272.283 209.79 272.283C209.693 272.283 209.597 272.306 209.51 272.35Z" fill="#2B303F"/>
<path d="M212 270.92L210.24 271.92C210.1 272.01 210.12 272.15 210.24 272.25L211.92 273.25C212.007 273.294 212.103 273.317 212.2 273.317C212.297 273.317 212.393 273.294 212.48 273.25L214.23 272.25C214.37 272.17 214.36 272.03 214.23 271.93L212.56 270.93C212.473 270.887 212.378 270.863 212.281 270.862C212.184 270.86 212.088 270.88 212 270.92V270.92Z" fill="#2B303F"/>
<path d="M214.47 269.49L212.71 270.49C212.57 270.57 212.59 270.72 212.71 270.81L214.39 271.81C214.476 271.856 214.572 271.881 214.67 271.881C214.768 271.881 214.864 271.856 214.95 271.81L216.7 270.81C216.84 270.73 216.83 270.58 216.7 270.49L215.03 269.49C214.943 269.446 214.847 269.423 214.75 269.423C214.653 269.423 214.557 269.446 214.47 269.49Z" fill="#2B303F"/>
<path d="M217 268.06L215.24 269.06C215.1 269.14 215.12 269.29 215.24 269.38L216.92 270.38C217.007 270.422 217.103 270.443 217.2 270.443C217.297 270.443 217.393 270.422 217.48 270.38L219.23 269.38C219.38 269.3 219.36 269.15 219.23 269.06L217.56 268.06C217.474 268.014 217.378 267.989 217.28 267.989C217.182 267.989 217.086 268.014 217 268.06V268.06Z" fill="#2B303F"/>
<path d="M219.43 266.62L217.68 267.62C217.53 267.7 217.55 267.84 217.68 267.94L219.35 268.94C219.437 268.982 219.533 269.003 219.63 269.003C219.727 269.003 219.823 268.982 219.91 268.94L221.66 267.94C221.81 267.85 221.79 267.71 221.66 267.61L219.99 266.61C219.902 266.568 219.806 266.546 219.709 266.548C219.611 266.55 219.516 266.575 219.43 266.62V266.62Z" fill="#2B303F"/>
<path d="M221.91 265.19L220.16 266.19C220.01 266.28 220.03 266.42 220.16 266.52L221.83 267.52C221.917 267.564 222.013 267.587 222.11 267.587C222.207 267.587 222.303 267.564 222.39 267.52L224.14 266.52C224.29 266.44 224.27 266.3 224.14 266.2L222.47 265.2C222.383 265.157 222.288 265.133 222.191 265.132C222.094 265.13 221.998 265.15 221.91 265.19V265.19Z" fill="#2B303F"/>
<path d="M227.46 262L222.64 264.78C222.49 264.86 222.51 265.01 222.64 265.1L224.31 266.1C224.396 266.146 224.492 266.171 224.59 266.171C224.688 266.171 224.784 266.146 224.87 266.1L229.7 263.32C229.84 263.24 229.82 263.09 229.7 263L228 262C227.917 261.957 227.824 261.935 227.73 261.935C227.636 261.935 227.544 261.957 227.46 262V262Z" fill="#2B303F"/>
<path d="M194.62 281L192.23 282.38C192.09 282.46 192.1 282.6 192.23 282.7L193.9 283.7C193.987 283.742 194.083 283.763 194.18 283.763C194.277 283.763 194.373 283.742 194.46 283.7L196.86 282.32C197 282.24 196.98 282.09 196.81 282L195.14 281C195.059 280.96 194.97 280.94 194.88 280.94C194.79 280.94 194.701 280.96 194.62 281V281Z" fill="#2B303F"/>
<path d="M237.18 267.59L201.94 287.94C201.8 288.02 201.82 288.16 201.94 288.26L202.78 288.74C202.867 288.784 202.963 288.807 203.06 288.807C203.157 288.807 203.253 288.784 203.34 288.74L238.57 268.39C238.72 268.31 238.7 268.17 238.57 268.07L237.74 267.59C237.653 267.546 237.557 267.523 237.46 267.523C237.363 267.523 237.267 267.546 237.18 267.59V267.59Z" fill="#2B303F"/>
<path d="M195.95 268.5L196.18 268.63L202.27 272.15L213.09 265.9L213.32 265.77L207 262.13L195.95 268.5Z" fill="#BFBFBF"/>
<path d="M196.18 268.63L202.27 272.15L213.09 265.9L207 262.39L196.18 268.63Z" fill="#E5E5E5"/>
<path d="M178.59 276.71V277.25C178.59 277.639 178.693 278.022 178.888 278.359C179.083 278.696 179.363 278.975 179.7 279.17L201.16 291.56C201.496 291.758 201.88 291.861 202.27 291.86C202.66 291.859 203.043 291.755 203.38 291.56L242.2 269.14C242.538 268.946 242.818 268.666 243.013 268.329C243.208 267.992 243.311 267.609 243.31 267.22V266.68L202.31 290.38L178.59 276.71Z" fill="#E5E5E5"/>
<path d="M202.89 290.71C203.258 290.852 203.653 290.91 204.046 290.878C204.438 290.847 204.819 290.728 205.16 290.53L243.82 268.21C244.155 268.016 244.444 267.751 244.665 267.433C244.886 267.115 245.035 266.752 245.1 266.37L249.33 241.14C249.34 240.997 249.34 240.853 249.33 240.71C249.331 240.363 249.263 240.019 249.131 239.698C248.999 239.377 248.805 239.086 248.56 238.84L208.41 262C208.165 262.147 207.955 262.344 207.793 262.578C207.631 262.813 207.521 263.079 207.47 263.36L202.89 290.71Z" fill="#F4F4F4"/>
<path d="M202.27 290.38L202.53 290.53C202.646 290.598 202.766 290.658 202.89 290.71L207.47 263.39C207.521 263.109 207.631 262.843 207.793 262.608C207.955 262.374 208.165 262.177 208.41 262.03L248.59 238.84C248.428 238.682 248.246 238.544 248.05 238.43L207.79 261.67C207.545 261.817 207.335 262.014 207.173 262.248C207.011 262.483 206.901 262.749 206.85 263.03L202.27 290.38Z" fill="#E5E5E5"/>
<path opacity="0.4" d="M404.47 500C426.456 500 444.28 489.707 444.28 477.01C444.28 464.313 426.456 454.02 404.47 454.02C382.484 454.02 364.66 464.313 364.66 477.01C364.66 489.707 382.484 500 404.47 500Z" fill="#D6D8E5"/>
<path d="M436.74 302.29C437.19 306.29 441.93 323.38 440.91 329.24C439.89 335.1 423.72 344.92 423.72 344.92L421.48 334.92L430.48 326.14L428 309.47L436.74 302.29Z" fill="#FFCEA9"/>
<path d="M424.23 285.42C425.802 284.689 427.589 284.562 429.249 285.064C430.909 285.566 432.326 286.661 433.23 288.14C435.61 292.08 438.08 305.6 438.31 307.91C438.31 307.91 434.97 312.52 429.96 311.75L424.23 285.42Z" fill="#EDEDED"/>
<path d="M405.75 476.32C402.229 477.296 398.465 476.84 395.28 475.05C392.76 475.13 379.07 469.27 377.21 474.19C375.58 478.5 381.51 482.49 384.68 483.26C391.59 484.93 396.68 488.38 399.48 488.96C401.55 489.4 404.23 489.69 405.88 488.06C407.86 486.11 407.69 478.89 405.75 476.32Z" fill="#FC843D"/>
<path d="M399.48 487.77C396.71 487.19 391.59 483.77 384.68 482.06C382.02 481.42 377.45 478.51 376.99 475.06C376.37 479.06 381.72 482.55 384.68 483.27C391.59 484.94 396.68 488.39 399.48 488.97C401.55 489.41 404.23 489.7 405.88 488.07C406.305 487.597 406.617 487.032 406.79 486.42C405.761 487.199 404.564 487.727 403.295 487.961C402.026 488.196 400.719 488.13 399.48 487.77Z" fill="#FC843D"/>
<path d="M428 466.35C424.48 467.324 420.718 466.871 417.53 465.09C415.01 465.16 401.32 459.3 399.46 464.22C397.83 468.53 403.76 472.52 406.93 473.29C413.84 474.96 418.93 478.41 421.73 479C423.81 479.43 426.48 479.72 428.13 478.09C430.06 476.14 429.89 468.92 428 466.35Z" fill="#FC843D"/>
<path d="M421.68 477.8C418.91 477.22 413.79 473.8 406.88 472.09C404.22 471.45 399.65 468.55 399.19 465.09C398.57 469.09 403.92 472.57 406.88 473.29C413.79 474.96 418.88 478.41 421.68 479C423.76 479.43 426.43 479.72 428.08 478.09C428.505 477.617 428.817 477.052 428.99 476.44C427.962 477.221 426.766 477.751 425.496 477.987C424.227 478.223 422.92 478.159 421.68 477.8V477.8Z" fill="#FC843D"/>
<path d="M428.22 429.16C427.635 424.073 426.577 419.051 425.06 414.16C425.06 414.16 426.01 401.22 426.48 388.95C427.02 375.03 431.84 362.78 428.03 351.67L385.08 361.22C385.08 361.22 387.68 416.72 388.26 423.44C388.575 428.662 389.216 433.858 390.18 439C392.18 449.77 395.33 475.4 395.33 475.4C399.87 478.04 405.83 476.58 405.83 476.58C405.83 476.58 405.51 444.17 405.21 436.41C404.86 426.93 404.57 427.65 404.57 427.65L406 404.07L406.93 392.33C406.93 392.33 408.12 400.95 408.93 408.65C409.6 415.36 411.22 421.43 413.03 433.93C414.6 444.77 417.15 466.55 417.15 466.55C421.69 469.2 427.86 467 427.86 467C427.86 467 429.45 438.56 428.22 429.16Z" fill="#FC843D"/>
<path d="M422 285.65C418.73 285.81 416.3 286.65 415.89 285.65C415.536 283.964 415.286 282.257 415.14 280.54C415.52 279.59 415.84 278.54 415.84 278.54C419.95 276.01 421.25 271.54 421.79 266.4C422.71 257.56 417.93 249.83 409.1 248.9C400.79 248.04 394.68 253.9 393.05 261.9C392.17 265.9 390.42 273.34 392.79 279.9C394.11 283.54 395.79 286.43 397.51 286.99C399.157 286.948 400.8 286.804 402.43 286.56C402.43 286.56 402.87 289.02 403.18 290.56C403.49 292.1 403.36 292.97 400.23 294.9C397.1 296.83 404.97 300.81 410.12 300.41C415.27 300.01 421 297 422.58 293.63C424.35 289.92 424.2 285.54 422 285.65Z" fill="#FFCEA9"/>
<path d="M417.22 286.14C418.12 288.39 415.82 291.14 409.68 293.09C403.54 295.04 402.98 292.54 402.98 292.54C402.98 292.54 393.98 296.64 391.04 298.69C387.36 301.27 385.72 308.69 385.22 321.32C384.65 335.89 384.6 357.5 385.08 361.23C385.08 361.23 391.97 368.1 400.79 367.38C409.61 366.66 424.45 358.85 428.05 352.82C427.95 340.05 426.45 337.97 428.52 330.61C433.26 313.76 435.75 306.86 433.45 295.66C431.55 286.43 428.89 285.29 425.25 285.38C422.562 285.49 419.881 285.744 417.22 286.14V286.14Z" fill="#F4F4F4"/>
<path d="M371.36 333.36C378.6 335.19 380.3 330.62 381.25 326.85C383.55 317.7 384.79 309.44 386.51 304.24C388.51 298.12 390.65 297.15 393.62 295.95C397.12 294.55 400.12 297.5 398.96 305.3C397.58 314.52 395.78 320.99 392.33 331.9C391.43 334.75 389.41 339.81 386.39 342.26C382.65 345.26 377.03 345.15 368.52 343.03C364.89 342.13 360.91 339.96 354.05 336.76C352.21 335.9 350.77 335.33 347.24 333.68C343.71 332.03 340.02 329.28 338.17 326.6C336.32 323.92 336.07 322.6 336.45 322.04C336.92 321.27 337.76 321.44 338.75 322.57C340.178 324.482 341.943 326.115 343.96 327.39C343.96 327.39 341.67 325.03 340.43 323.5C339.321 322.136 338.4 320.629 337.69 319.02C337.04 317.46 338.39 315.34 339.41 316.45C340.43 317.56 340.93 318.7 342.8 320.94C343.782 322.139 344.907 323.214 346.15 324.14C344.989 322.558 343.956 320.886 343.06 319.14C342.259 317.783 341.867 316.224 341.93 314.65C341.98 313.83 343.14 312.86 344.22 314.41C345.22 315.8 345.84 317.98 348.11 320.35C349.76 322.06 351.17 323.05 351.21 322.57C351.25 322.09 350.21 321.16 349.62 319.16C349.03 317.16 349.62 315.05 350.73 314.82C351.84 314.59 351.62 314.65 352.5 316.52C353.38 318.39 354.75 319.77 355.79 322.52C356.357 324.446 357.387 326.204 358.79 327.64C360.55 329.54 364.48 331.63 371.36 333.36Z" fill="#FFCEA9"/>
<path d="M396.3 294.7C391.47 293.99 388.06 296.16 385.92 303.49C383.78 310.82 382.3 316.82 382.3 316.82C384.209 319.58 387.105 321.502 390.39 322.19C396.17 323.59 398.25 320.83 398.25 320.83C398.25 320.83 399.86 313.16 400.86 307.94C401.86 302.72 402.28 295.58 396.3 294.7Z" fill="#EDEDED"/>
<path d="M393.28 260.79C393.28 260.79 385.64 249.19 402.19 246.79C414.12 245.09 421.79 252.79 422.67 261.07C423.52 269.02 418.62 277.27 415.09 280.55C413.37 281.16 409.65 281.55 404.78 279.3C404.582 277.136 404.505 274.963 404.55 272.79C404.55 272.79 410.37 260.58 393.28 260.79Z" fill="#632A08"/>
<path d="M238.84 220.51C248.549 220.51 256.42 212.639 256.42 202.93C256.42 193.221 248.549 185.35 238.84 185.35C229.131 185.35 221.26 193.221 221.26 202.93C221.26 212.639 229.131 220.51 238.84 220.51Z" fill="#A14711"/>
<path d="M238.84 211.25C232.17 211.25 225.71 209.73 221.12 207.07C217.29 204.86 215.12 202.07 215.12 199.43C215.12 196.79 217.32 194 221.12 191.79C225.71 189.13 232.12 187.61 238.84 187.61C245.56 187.61 251.96 189.14 256.56 191.79C260.39 194 262.56 196.79 262.56 199.43C262.56 202.07 260.37 204.86 256.56 207.07C252 209.73 245.5 211.25 238.84 211.25Z" fill="#B7C0EE"/>
<path d="M238.84 208.22C232.17 208.22 225.71 206.7 221.12 204.05C217.29 201.84 215.12 199.05 215.12 196.41C215.12 193.77 217.32 190.98 221.12 188.76C225.71 186.11 232.12 184.59 238.84 184.59C245.56 184.59 251.96 186.11 256.56 188.76C260.39 190.98 262.56 193.76 262.56 196.41C262.56 199.06 260.37 201.84 256.56 204.05C252 206.7 245.5 208.22 238.84 208.22Z" fill="#A14711"/>
<path d="M238.84 205.49C230.2 205.49 221.84 203.49 215.84 200.08C210.84 197.21 208.03 193.6 208.03 190.17C208.03 186.74 210.87 183.17 215.84 180.27C221.79 176.83 230.16 174.86 238.84 174.86C247.52 174.86 255.84 176.86 261.84 180.27C266.84 183.13 269.66 186.74 269.66 190.17C269.66 193.6 266.81 197.17 261.84 200.08C255.85 203.52 247.48 205.49 238.84 205.49Z" fill="#B7C0EE"/>
<path d="M238.84 201.57C230.2 201.57 221.84 199.57 215.84 196.16C210.84 193.3 208.03 189.68 208.03 186.26C208.03 182.84 210.87 179.26 215.84 176.35C221.79 172.91 230.16 170.94 238.84 170.94C247.52 170.94 255.84 172.94 261.84 176.35C266.84 179.22 269.66 182.83 269.66 186.26C269.66 189.69 266.81 193.26 261.84 196.16C255.85 199.6 247.48 201.57 238.84 201.57Z" fill="#A14711"/>
<path d="M238.84 197.92C228.3 197.92 218.1 195.52 210.84 191.33C204.79 187.83 201.32 183.43 201.32 179.25C201.32 175.07 204.79 170.67 210.84 167.18C218.1 162.99 228.3 160.58 238.84 160.58C249.38 160.58 259.57 162.99 266.84 167.18C272.89 170.67 276.36 175.07 276.36 179.25C276.36 183.43 272.89 187.83 266.84 191.33C259.58 195.52 249.37 197.92 238.84 197.92Z" fill="#B7C0EE"/>
<path d="M238.84 193.14C228.3 193.14 218.1 190.74 210.84 186.55C204.79 183.06 201.32 178.65 201.32 174.47C201.32 170.29 204.79 165.89 210.84 162.4C218.1 158.21 228.3 155.81 238.84 155.81C249.38 155.81 259.57 158.21 266.84 162.4C272.89 165.89 276.36 170.3 276.36 174.48C276.36 178.66 272.89 183.06 266.84 186.55C259.58 190.74 249.37 193.14 238.84 193.14Z" fill="#A14711"/>
<path d="M238.84 188.21C226.74 188.21 215.03 185.46 206.69 180.64C199.74 176.64 195.76 171.58 195.76 166.78C195.76 161.98 199.76 156.93 206.69 152.91C215.02 148.1 226.74 145.35 238.83 145.35C250.92 145.35 262.65 148.1 270.98 152.92C277.93 156.92 281.91 161.98 281.91 166.78C281.91 171.58 277.91 176.63 270.98 180.64C262.65 185.46 250.93 188.21 238.84 188.21Z" fill="#B7C0EE"/>
<path d="M238.84 182.73C226.74 182.73 215.03 179.97 206.69 175.16C199.74 171.16 195.76 166.1 195.76 161.3C195.76 156.5 199.76 151.44 206.69 147.43C215.02 142.62 226.74 139.86 238.83 139.86C250.92 139.86 262.65 142.62 270.98 147.43C277.93 151.43 281.91 156.5 281.91 161.3C281.91 166.1 277.91 171.15 270.98 175.16C262.65 180 250.93 182.73 238.84 182.73Z" fill="#A14711"/>
<path d="M238.84 178.65C265.593 178.65 287.28 166.127 287.28 150.68C287.28 135.233 265.593 122.71 238.84 122.71C212.087 122.71 190.4 135.233 190.4 150.68C190.4 166.127 212.087 178.65 238.84 178.65Z" fill="#FFDF57"/>
<path d="M226.48 81.76H222.19V148.45H226.48V81.76Z" fill="#D8AA44"/>
<path d="M255.85 81.76H251.56V148.45H255.85V81.76Z" fill="#D8AA44"/>
<path d="M238.72 86.1L232.43 80.34L224.71 85.51L222.19 81.77L232.85 74.77L238.96 80.36L246.28 74.68L255.85 81.77L252.86 85.2L246.27 80.25L238.72 86.1Z" fill="#D8AA44"/>
<path opacity="0.69" d="M287.21 152.14C287.29 145.86 288.37 127.32 303.12 101.77C320.57 71.54 302.38 0 238.71 0C175.04 0 156.85 71.54 174.3 101.77C187.05 123.86 189.83 143.46 190.41 152.42" fill="#FFDF57"/>
<path opacity="0.2" d="M205.13 334.14L202.35 331.54C201.997 331.029 201.573 330.571 201.09 330.18C200.879 330.003 200.655 329.843 200.42 329.7L196.82 327.3L192.89 325.56C192.649 325.449 192.402 325.352 192.15 325.27C191.571 325.077 190.969 324.963 190.36 324.93L186.62 323.71C186.41 323.71 186.53 324.09 186.62 324.25L186.98 324.4C187.43 324.57 187.05 324.51 187.52 324.84L189.67 325.39C191.039 325.338 192.394 325.686 193.57 326.39L196.42 327.82L199.16 329.47C200.364 330.132 201.324 331.162 201.9 332.41L203.35 333.58C203.8 334 203.54 333.82 204.21 333.92L204.58 334.24C204.85 334.31 205.25 334.32 205.13 334.14Z" fill="black"/>
<path opacity="0.1" d="M197.31 328.64C197.532 328.298 197.83 328.01 198.18 327.8C198.689 327.488 199.286 327.351 199.88 327.41C200.581 327.482 201.261 327.693 201.88 328.03H201.95L202.95 328.57C203.21 328.71 203.45 328.87 203.69 329.03L204.15 329.37C204.84 329.92 204.64 331 204.03 331.86C203.692 332.34 203.303 332.783 202.87 333.18C202.489 333.51 202.031 333.74 201.538 333.846C201.045 333.953 200.533 333.934 200.05 333.79C199.602 333.649 199.169 333.461 198.76 333.23C198.381 333.009 198.023 332.755 197.69 332.47C197.28 332.087 196.997 331.587 196.879 331.038C196.761 330.49 196.814 329.918 197.03 329.4C197.095 329.137 197.189 328.882 197.31 328.64ZM189.06 323.64C189.6 322.81 190.52 322.18 191.3 322.44L191.8 322.63C192.053 322.729 192.3 322.842 192.54 322.97L193.45 323.44H193.51C194.082 323.742 194.578 324.169 194.96 324.69C195.117 324.902 195.23 325.142 195.294 325.398C195.357 325.654 195.37 325.92 195.33 326.18C195.27 326.567 195.12 326.933 194.89 327.25C194.703 327.476 194.492 327.68 194.26 327.86C193.841 328.268 193.322 328.56 192.756 328.706C192.189 328.851 191.594 328.846 191.03 328.69C190.628 328.562 190.239 328.395 189.87 328.19C189.513 327.97 189.178 327.715 188.87 327.43C188.55 327.132 188.328 326.744 188.234 326.317C188.139 325.891 188.176 325.445 188.34 325.04C188.527 324.551 188.769 324.085 189.06 323.65V323.64Z" fill="black"/>
<path d="M188 324.86L190.14 324.66C191.495 324.526 192.86 324.797 194.06 325.44L205.87 331.37L206.56 330.37L193.34 324.54C192.545 324.168 191.686 323.954 190.81 323.91L186.61 323.67C186.564 323.662 186.517 323.668 186.474 323.687C186.432 323.707 186.396 323.739 186.372 323.779C186.348 323.819 186.337 323.866 186.34 323.912C186.343 323.959 186.361 324.003 186.39 324.04L186.5 324.19C186.673 324.419 186.901 324.601 187.164 324.718C187.426 324.835 187.714 324.884 188 324.86V324.86Z" fill="#2B303F"/>
<path d="M203.28 333.42L202.39 331.42C201.816 330.172 200.86 329.139 199.66 328.47L188.87 322.01L189.48 321.08L200.89 328.67C201.648 329.151 202.301 329.78 202.81 330.52L205.26 334.1C205.38 334.28 205.2 334.51 204.96 334.47H204.75C204.437 334.432 204.138 334.317 203.881 334.133C203.624 333.95 203.417 333.704 203.28 333.42V333.42Z" fill="#2B303F"/>
<path opacity="0.3" d="M200.08 327C200.781 327.069 201.461 327.276 202.08 327.61H202.14L203.14 328.14C203.4 328.29 203.64 328.44 203.88 328.6C204.12 328.76 204.19 328.83 204.34 328.95C205.02 329.49 204.82 330.58 204.22 331.43C203.885 331.915 203.492 332.359 203.05 332.75C202.674 333.085 202.218 333.319 201.726 333.427C201.234 333.536 200.722 333.516 200.24 333.37C199.793 333.221 199.361 333.03 198.95 332.8C198.567 332.586 198.208 332.331 197.88 332.04C197.468 331.66 197.184 331.162 197.066 330.614C196.948 330.067 197.002 329.496 197.22 328.98C197.295 328.7 197.406 328.431 197.55 328.18C197.775 327.84 198.072 327.553 198.42 327.34C198.922 327.051 199.505 326.932 200.08 327V327Z" fill="url(#paint0_linear)"/>
<path d="M189.16 320.87L188.64 321.69C188.596 321.738 188.572 321.8 188.572 321.865C188.572 321.93 188.596 321.992 188.64 322.04C188.729 322.12 188.789 322.227 188.811 322.344C188.833 322.462 188.815 322.584 188.76 322.69L187.9 324.49C187.649 325 187.569 325.578 187.674 326.137C187.778 326.695 188.061 327.205 188.48 327.59V327.59C189.207 328.238 190.067 328.719 191 329V329C191.695 329.212 192.434 329.231 193.139 329.055C193.843 328.879 194.487 328.514 195 328L195.8 327.19C195.977 327.018 196.084 326.786 196.1 326.54C196.116 326.431 196.157 326.327 196.22 326.237C196.284 326.146 196.368 326.072 196.465 326.021C196.563 325.969 196.671 325.941 196.781 325.939C196.892 325.937 197.001 325.962 197.1 326.01L197.3 326.11L197.5 326.23C197.581 326.289 197.646 326.367 197.689 326.458C197.731 326.549 197.75 326.649 197.743 326.749C197.736 326.85 197.704 326.946 197.649 327.03C197.594 327.114 197.519 327.183 197.43 327.23C197.205 327.349 197.026 327.539 196.92 327.77L196.47 328.77C196.186 329.406 196.116 330.117 196.269 330.796C196.422 331.476 196.791 332.087 197.32 332.54V332.54C198.084 333.214 198.98 333.721 199.95 334.03V334.03C200.572 334.231 201.237 334.253 201.872 334.096C202.506 333.939 203.084 333.608 203.54 333.14L205.04 331.56C205.14 331.46 205.265 331.388 205.403 331.353C205.54 331.318 205.684 331.32 205.82 331.36C205.892 331.385 205.971 331.387 206.044 331.365C206.117 331.344 206.182 331.3 206.23 331.24L206.84 330.4C206.903 330.324 206.938 330.229 206.938 330.13C206.938 330.031 206.903 329.936 206.84 329.86C205.885 328.911 204.785 328.121 203.58 327.52L202.58 326.98C201.84 326.577 201.028 326.326 200.19 326.24L199.45 326.16C199.285 326.168 199.123 326.11 199 326C198.927 325.897 198.831 325.811 198.72 325.75L197.9 325.31L197.08 324.86C196.962 324.8 196.832 324.766 196.7 324.76C196.605 324.757 196.512 324.734 196.427 324.69C196.342 324.647 196.268 324.585 196.21 324.51L195.81 323.97C195.348 323.351 194.749 322.848 194.06 322.5L193.15 322.02C192.074 321.382 190.897 320.932 189.67 320.69C189.577 320.67 189.48 320.677 189.39 320.708C189.3 320.74 189.22 320.796 189.16 320.87ZM197.51 328.24C197.735 327.9 198.032 327.613 198.38 327.4C198.889 327.088 199.487 326.955 200.08 327.02C200.781 327.088 201.46 327.296 202.08 327.63H202.14L203.14 328.16C203.4 328.31 203.64 328.46 203.88 328.62C204.12 328.78 204.19 328.85 204.34 328.97C205.02 329.51 204.82 330.6 204.22 331.45C203.884 331.935 203.492 332.379 203.05 332.77C202.674 333.105 202.218 333.339 201.726 333.447C201.234 333.556 200.722 333.536 200.24 333.39C199.793 333.241 199.361 333.05 198.95 332.82C198.567 332.606 198.208 332.351 197.88 332.06C197.468 331.68 197.184 331.182 197.066 330.634C196.948 330.087 197.001 329.516 197.22 329C197.285 328.736 197.382 328.48 197.51 328.24ZM189.25 323.24C189.8 322.42 190.71 321.79 191.5 322.05C191.67 322.101 191.837 322.161 192 322.23C192.25 322.33 192.5 322.45 192.74 322.57L193.65 323.05H193.71C194.278 323.358 194.772 323.784 195.16 324.3C195.316 324.514 195.429 324.756 195.49 325.014C195.552 325.271 195.562 325.539 195.52 325.8C195.463 326.184 195.312 326.548 195.08 326.86C194.896 327.091 194.684 327.299 194.45 327.48C194.03 327.888 193.512 328.178 192.945 328.324C192.379 328.47 191.784 328.465 191.22 328.31C190.82 328.181 190.434 328.01 190.07 327.8C189.71 327.588 189.374 327.336 189.07 327.05C188.751 326.75 188.529 326.36 188.435 325.932C188.34 325.504 188.377 325.057 188.54 324.65C188.729 324.161 188.967 323.691 189.25 323.25V323.24Z" fill="#2B303F"/>
<path d="M194.37 327.64C193.952 328.05 193.433 328.343 192.866 328.488C192.299 328.634 191.704 328.628 191.14 328.47C190.745 328.353 190.363 328.196 190 328C189.638 327.791 189.302 327.539 189 327.25C188.68 326.952 188.458 326.564 188.364 326.137C188.269 325.711 188.306 325.265 188.47 324.86C188.667 324.354 188.918 323.871 189.22 323.42V323.42C188.944 323.841 188.712 324.29 188.53 324.76C188.367 325.167 188.33 325.614 188.425 326.042C188.519 326.47 188.741 326.86 189.06 327.16C189.364 327.446 189.7 327.698 190.06 327.91C190.424 328.12 190.81 328.291 191.21 328.42C191.774 328.575 192.369 328.58 192.935 328.434C193.502 328.288 194.02 327.998 194.44 327.59C194.672 327.41 194.883 327.206 195.07 326.98L195 327C194.818 327.239 194.606 327.454 194.37 327.64V327.64Z" fill="#1F232D"/>
<path d="M202.92 332.94C202.543 333.274 202.087 333.505 201.595 333.612C201.103 333.719 200.591 333.697 200.11 333.55C199.662 333.409 199.229 333.221 198.82 332.99C198.442 332.769 198.083 332.515 197.75 332.23C197.34 331.847 197.057 331.347 196.939 330.798C196.821 330.25 196.874 329.678 197.09 329.16C197.169 328.885 197.28 328.62 197.42 328.37L197.5 328.26C197.363 328.506 197.255 328.768 197.18 329.04C196.961 329.556 196.908 330.127 197.026 330.674C197.144 331.222 197.428 331.72 197.84 332.1C198.168 332.391 198.527 332.646 198.91 332.86C199.321 333.09 199.753 333.281 200.2 333.43C200.682 333.576 201.194 333.596 201.686 333.487C202.178 333.379 202.634 333.145 203.01 332.81C203.416 332.447 203.782 332.042 204.1 331.6V331.6C203.763 332.093 203.366 332.543 202.92 332.94V332.94Z" fill="#1F232D"/>
<path opacity="0.3" d="M195.16 324.34C194.772 323.824 194.278 323.398 193.71 323.09H193.65L192.74 322.61C192.5 322.49 192.25 322.37 192 322.27C191.837 322.201 191.67 322.141 191.5 322.09C190.71 321.83 189.8 322.46 189.25 323.28C188.95 323.732 188.699 324.215 188.5 324.72C188.337 325.127 188.3 325.574 188.395 326.002C188.489 326.43 188.711 326.82 189.03 327.12C189.334 327.406 189.67 327.658 190.03 327.87C190.394 328.08 190.78 328.251 191.18 328.38C191.744 328.535 192.339 328.54 192.905 328.394C193.472 328.248 193.99 327.958 194.41 327.55C194.644 327.369 194.856 327.161 195.04 326.93C195.272 326.618 195.423 326.254 195.48 325.87C195.532 325.607 195.531 325.335 195.476 325.072C195.421 324.81 195.313 324.56 195.16 324.34Z" fill="url(#paint1_linear)"/>
</g>
<defs>
<linearGradient id="paint0_linear" x1="200.86" y1="327" x2="200.86" y2="333.56" gradientUnits="userSpaceOnUse">
<stop offset="0.01" stop-color="white"/>
<stop offset="0.88" stop-color="white" stop-opacity="0"/>
</linearGradient>
<linearGradient id="paint1_linear" x1="1565.54" y1="2405.08" x2="1565.54" y2="2447.07" gradientUnits="userSpaceOnUse">
<stop offset="0.01" stop-color="white"/>
<stop offset="0.88" stop-color="white" stop-opacity="0"/>
</linearGradient>
<clipPath id="clip0">
<rect width="449.09" height="500" fill="white"/>
</clipPath>
</defs>
</svg>
